<svg data-v-423bf9ae="" xmlns="http://www.w3.org/2000/svg" viewBox="0 0 352 112" class="iconLeft"><g data-v-423bf9ae="" id="1e1c8c31-1dfb-42c7-8dd0-4dfce4e22a41" fill="#000000" transform="matrix(5.410279921920812,0,0,5.410279921920812,125.21391200092428,11.272416020614614)"><path d="M1.09 4.36L1.09 13.52L3.65 13.52L3.65 10.81C4.05 11.02 4.59 11.18 5.29 11.18C7.07 11.18 8.75 9.94 8.75 7.82C8.75 5.66 6.86 4.36 5.02 4.36ZM4.72 9.06C4.32 9.06 3.95 8.98 3.65 8.87L3.65 6.75L4.72 6.75C5.52 6.75 6.13 7.07 6.13 7.82C6.13 8.48 5.52 9.06 4.72 9.06ZM14.26 6.41C13.38 6.41 12.91 7.05 12.47 7.79L12.47 6.55L10.12 6.55L10.12 13.52L12.47 13.52L12.47 9.94C12.78 9.32 13.28 8.90 13.92 8.90C14.40 8.90 14.71 9.02 15.05 9.23L15.05 6.62C14.82 6.49 14.56 6.41 14.26 6.41ZM18.10 5.48C18.88 5.48 19.58 4.84 19.58 4.06C19.58 3.27 18.88 2.64 18.10 2.64C17.31 2.64 16.64 3.27 16.64 4.06C16.64 4.84 17.31 5.48 18.10 5.48ZM19.35 6.55L15.86 6.55L15.86 8.46L16.99 8.46L16.99 13.52L19.35 13.52ZM25.12 13.52L28.45 6.55L25.74 6.55L24.35 10.08L22.94 6.55L20.23 6.55L23.60 13.52ZM35.53 9.87C35.53 7.72 34.13 6.34 32.16 6.34C30.05 6.34 28.45 8.07 28.45 10.14C28.45 12.36 30.31 13.73 32.29 13.73C33.33 13.73 34.11 13.52 34.59 13.22L34.59 11.21C34.21 11.43 33.48 11.68 32.43 11.68C31.64 11.68 30.98 11.35 30.78 10.65L35.53 10.65ZM30.80 9.34C30.99 8.63 31.47 8.29 32.09 8.29C32.70 8.29 33.30 8.68 33.30 9.34ZM40.97 6.41C40.10 6.41 39.62 7.05 39.18 7.79L39.18 6.55L36.83 6.55L36.83 13.52L39.18 13.52L39.18 9.94C39.50 9.32 39.99 8.90 40.63 8.90C41.11 8.90 41.43 9.02 41.77 9.23L41.77 6.62C41.54 6.49 41.28 6.41 40.97 6.41Z"></path></g><defs data-v-423bf9ae=""><linearGradient data-v-423bf9ae="" gradientTransform="rotate(25)" id="cabd4728-9ac6-4233-9050-e1e2b198e193" x1="0%" y1="0%" x2="100%" y2="0%"><stop data-v-423bf9ae="" offset="0%" style="stop-color: rgb(146, 13, 233); stop-opacity: 1;"></stop><stop data-v-423bf9ae="" offset="100%" style="stop-color: rgb(21, 54, 241); stop-opacity: 1;"></stop></linearGradient></defs><g data-v-423bf9ae="" id="173637cf-0dbb-427c-936d-5510b08b1675" transform="matrix(1.1111111111111112,0,0,1.1111111111111112,0.44444444444444287,0.44444444444444287)" stroke="none" fill="url(#cabd4728-9ac6-4233-9050-e1e2b198e193)"><path d="M74.988 37.5V25C74.988 7.739 62.5 0 50 0H24.988C12.5 0 0 6.641 0 25c0 17.969 12.5 25 24.988 25h2.904c-1.77 3.437-2.904 7.52-2.904 12.5V75c0 13.807 11.205 25 25.012 25 0-6.909 5.604-12.5 12.5-12.5h12.488C87.5 87.5 100 80.469 100 62.5c0-18.359-12.5-25-25.012-25m-50 0C12.5 37.5 12.5 28.088 12.5 25c0-3.748 0-12.5 12.488-12.5H50c4.676 0 12.5 1.623 12.5 12.5v12.5c0 4.083-1.965 7.721-5.029 10.004C52.905 41.431 45.654 37.5 37.5 37.5zm50 37.5H62.5c-8.166 0-15.43 3.931-19.995 9.998A12.49 12.49 0 0 1 37.5 75V62.5c0-5.719 2.844-9.191 5.676-10.975C47.18 53.613 50 57.678 50 62.5c9.24 0 17.212-5.066 21.545-12.512l-.012.006 3.455.006C87.5 50 87.5 58.759 87.5 62.5c0 3.101 0 12.5-12.512 12.5m-.867-31.269c-.086.287-.184.567-.269.849.086-.281.196-.561.269-.849"></path></g></svg>